<?xml version="1.0" encoding="utf-8"?>
<!-- Generator: Adobe Illustrator 18.0.0, SVG Export Plug-In . SVG Version: 6.00 Build 0)  -->
<!DOCTYPE svg PUBLIC "-//W3C//DTD SVG 1.1//EN" "http://www.w3.org/Graphics/SVG/1.1/DTD/svg11.dtd">
<svg version="1.1" id="Layer_1" xmlns="http://www.w3.org/2000/svg" xmlns:xlink="http://www.w3.org/1999/xlink" x="0px" y="0px"
	 viewBox="0 0 134 102" enable-background="new 0 0 134 102" xml:space="preserve">
<g>
	<path fill="#6F777B" d="M124,0H10.1C4.5,0,0,4.5,0,10.1v81.8C0,97.5,4.5,102,10.1,102h19.1c0.5,0,0.8-0.4,0.8-0.8v-2.3
		c0-0.5-0.4-0.8-0.8-0.8H29c-2.2,0-4-1.8-4-4v-2.3c0-2,1.6-3.7,3.7-3.7h10.4c2.2,0,3.9,1.8,3.9,3.9v2.3c0,2.1-1.7,3.8-3.8,3.8h-0.3
		c-0.5,0-0.8,0.4-0.8,0.8v2.3c0,0.5,0.4,0.8,0.8,0.8h57.3c0.5,0,0.8-0.4,0.8-0.8v-2.3c0-0.5-0.4-0.8-0.8-0.8l0,0
		c-2.3,0-4.2-1.9-4.2-4.2v-2.2c0-2,1.6-3.7,3.7-3.7h10.5c2.1,0,3.8,1.7,3.8,3.8v2.4c0,2.1-1.7,3.8-3.8,3.8h-0.3
		c-0.5,0-0.8,0.4-0.8,0.8v2.3c0,0.5,0.4,0.8,0.8,0.8H124c5.5,0,10-4.5,10-10V10C134,4.5,129.5,0,124,0z"/>
</g>
<g>
	<path fill="#FFFFFF" d="M74.8,62.7c-0.4,0.6-0.9,1.1-1.5,1.6c-0.6,0.5-1.3,1-2.1,1.4c-0.8,0.4-1.7,0.7-2.6,0.9
		c-1,0.2-2,0.4-3.1,0.4c-2.5,0-4.7-0.5-6.8-1.5c-2-1-3.8-2.3-5.2-4.1c-1.4-1.7-2.6-3.8-3.3-6.2c-0.8-2.4-1.2-5-1.2-7.8
		c0-2.8,0.4-5.4,1.1-7.8c0.8-2.4,1.9-4.5,3.3-6.2c1.4-1.7,3.1-3.1,5.1-4.1c2-1,4.2-1.5,6.7-1.5c1.1,0,2.1,0.1,3,0.3
		c0.9,0.2,1.7,0.5,2.4,0.8s1.4,0.8,2,1.2c0.6,0.5,1.2,1,1.7,1.6v-3.2H84v31c0,0.4,0.1,0.8,0.4,1.2c0.2,0.4,0.7,0.6,1.4,0.6
		c1.3,0,2.5-0.4,3.5-1.3c1.1-0.9,2-2,2.7-3.5c0.7-1.5,1.3-3.2,1.7-5.1c0.4-1.9,0.6-4,0.6-6.2c0-2.1-0.2-4.3-0.7-6.4
		c-0.4-2.2-1.1-4.2-2-6.2c-0.9-2-2.1-3.8-3.5-5.5c-1.4-1.7-3.1-3.2-5.2-4.5s-4.3-2.3-6.9-3c-2.6-0.7-5.5-1.1-8.7-1.1
		c-3.9,0-7.6,0.7-11,2.2c-3.4,1.5-6.4,3.5-8.9,6.1s-4.5,5.7-5.9,9.3c-1.4,3.6-2.1,7.5-2.1,11.7c0,2.8,0.3,5.5,1,8
		c0.6,2.5,1.6,4.9,2.8,7c1.2,2.2,2.6,4.1,4.3,5.8c1.7,1.7,3.6,3.2,5.6,4.4c2.1,1.2,4.3,2.2,6.7,2.8c2.4,0.7,4.9,1,7.5,1
		c2.3,0,4.6-0.3,6.8-0.8c2.2-0.6,4.4-1.4,6.5-2.5l4,4.2c-2.8,1.5-5.8,2.6-8.8,3.3c-3,0.6-6,1-8.8,1c-3.2,0-6.2-0.4-9.1-1.2
		c-2.9-0.8-5.6-2-8-3.4c-2.5-1.5-4.7-3.3-6.7-5.3s-3.7-4.4-5.1-6.9c-1.4-2.5-2.5-5.3-3.3-8.2c-0.8-2.9-1.2-6-1.2-9.2
		c0-3.2,0.4-6.3,1.2-9.2c0.8-2.9,1.9-5.7,3.4-8.2c1.5-2.6,3.2-4.9,5.3-7c2.1-2.1,4.4-3.9,6.9-5.4c2.5-1.5,5.2-2.6,8.2-3.4
		c2.9-0.8,6-1.2,9.2-1.2s6.2,0.4,9,1.1c2.8,0.7,5.5,1.7,7.9,3c2.4,1.3,4.6,2.9,6.5,4.8s3.6,4,4.9,6.4c1.3,2.4,2.4,5,3.1,7.8
		c0.7,2.8,1.1,5.8,1.1,9c0,1.6-0.1,3.3-0.4,5c-0.3,1.7-0.7,3.3-1.3,4.9c-0.6,1.6-1.4,3.1-2.3,4.5c-0.9,1.4-2,2.6-3.2,3.7
		c-1.2,1-2.6,1.9-4.1,2.5c-1.5,0.6-3.2,0.9-5.1,0.9c-1.5,0-2.7-0.2-3.7-0.5s-1.9-0.7-2.7-1.2s-1.3-0.9-1.7-1.4
		C75.3,63.5,75,63.1,74.8,62.7z M74.6,44c0-1-0.2-1.9-0.5-2.8c-0.3-0.9-0.8-1.6-1.4-2.2c-0.6-0.6-1.4-1.1-2.3-1.5
		c-0.9-0.4-2-0.5-3.2-0.5c-1.4,0-2.6,0.3-3.6,0.8c-1,0.5-1.9,1.2-2.6,2.2c-0.7,0.9-1.2,2-1.5,3.3c-0.3,1.3-0.5,2.6-0.5,4.1v0.5
		c0,1.5,0.2,2.9,0.5,4.1c0.3,1.3,0.9,2.3,1.5,3.3c0.7,0.9,1.6,1.6,2.6,2.1c1,0.5,2.2,0.8,3.6,0.8c1.2,0,2.3-0.2,3.2-0.5
		c0.9-0.4,1.7-0.8,2.3-1.5c0.6-0.6,1.1-1.4,1.4-2.2c0.3-0.9,0.5-1.8,0.5-2.8V44z"/>
</g>
</svg>
